<svg width="31" height="32" viewBox="0 0 31 32" fill="none" xmlns="http://www.w3.org/2000/svg">
<path d="M16.0382 12.831L15.9815 12.805C15.8463 12.7425 15.7101 12.6836 15.5713 12.6284C15.4198 12.5668 15.2662 12.5098 15.1102 12.4564C14.9871 12.4154 14.8631 12.3771 14.7377 12.3397C14.5468 12.2836 14.354 12.2329 14.1554 12.1882C14.088 12.1741 14.0193 12.1604 13.951 12.148L13.9043 12.1389C13.787 12.1156 13.6693 12.0951 13.5502 12.0773L13.5161 12.0718C13.5148 12.0718 13.5139 12.0709 13.5125 12.0709L13.4784 12.0663C13.3796 12.0513 13.2812 12.0372 13.1787 12.0253L12.83 11.9961C12.4014 11.9674 11.9597 11.9683 11.536 11.9997L11.4124 12.0102L11.3549 12.0148L11.2107 12.028C11.0781 12.0421 10.9465 12.0609 10.8148 12.0823L10.7761 12.0878C10.6863 12.1028 10.5964 12.1197 10.5079 12.1366C10.4095 12.1544 10.3124 12.174 10.2154 12.1954C10.0276 12.2383 9.84103 12.2872 9.66044 12.3405C9.51663 12.3825 9.3747 12.4285 9.24124 12.4751L9.14867 12.5089C8.86558 12.6106 8.58432 12.7274 8.312 12.8556L8.23922 12.8907L8.23789 12.8926C5.05347 14.44 3 17.7369 3 21.3144C3 21.3965 3.00538 21.4772 3.01035 21.5584L3.03419 22.1259H21.365L21.3897 21.5648C21.395 21.4818 21.4 21.3992 21.4 21.3144C21.4 17.6799 19.2967 14.3537 16.0382 12.831ZM3.89897 21.2135C3.93763 18.0015 5.8082 15.0549 8.65919 13.6977L8.75085 13.6612L8.76162 13.6507C8.98493 13.5472 9.21544 13.4528 9.44909 13.3693L9.5232 13.3424C9.65038 13.2977 9.77706 13.2566 9.90871 13.2187C10.0727 13.1699 10.2399 13.1261 10.4075 13.0878C10.4942 13.0692 10.5809 13.0514 10.6704 13.0345C10.7413 13.0213 10.8119 13.0076 10.8833 12.9961L10.9184 12.9897C11.0469 12.9692 11.1759 12.9505 11.3044 12.9364L11.5982 12.9104C11.9828 12.8816 12.3508 12.8775 12.7965 12.9104L13.0823 12.9346C13.1528 12.9428 13.2234 12.9524 13.3092 12.9647L13.4121 12.9797C13.5195 12.9957 13.6269 13.0144 13.7347 13.035L13.7851 13.0445C13.8458 13.056 13.906 13.0678 13.963 13.0801C14.14 13.1194 14.3139 13.1658 14.4865 13.2165C14.6006 13.2503 14.7138 13.285 14.8244 13.3224C14.9645 13.3698 15.103 13.4214 15.24 13.4765C15.3717 13.529 15.5015 13.5851 15.63 13.6449L15.6524 13.6554C18.5682 15.0135 20.4616 17.9697 20.5003 21.2127L3.89897 21.2135ZM9.97891 12.1867C10.0463 12.2154 10.1159 12.2405 10.1856 12.2656L10.3316 12.3194C10.3878 12.3413 10.4444 12.3628 10.5019 12.381C11.0376 12.5521 11.5979 12.6401 12.1676 12.6447L12.213 12.6456C12.4085 12.6456 12.6044 12.6351 12.7921 12.6155C12.8568 12.6092 12.9197 12.5986 12.9831 12.5877L13.1238 12.5663C13.2028 12.5558 13.2819 12.5439 13.3646 12.5275C13.4212 12.5157 13.4761 12.5006 13.5309 12.4856L13.6845 12.4459C13.7605 12.4272 13.8364 12.4085 13.9115 12.3848C13.9582 12.3697 14.004 12.3524 14.0494 12.335L14.173 12.2899C14.2611 12.2589 14.35 12.2269 14.439 12.1891C14.4736 12.174 14.5073 12.1576 14.5405 12.1412L14.5805 12.1211C14.7023 12.0659 14.8236 12.0093 14.944 11.9436L15.0222 11.8962C15.1569 11.8186 15.2913 11.7383 15.4274 11.6439C15.498 11.5956 15.5654 11.5413 15.6319 11.4875L15.862 11.3059C17.1848 10.1942 17.9451 8.56278 17.9451 6.87077L17.9478 6.82243C17.9478 3.61174 15.3749 1 12.2125 1C9.19397 1 6.68263 3.39638 6.49526 6.45566L6.49029 6.5314C6.48309 6.62765 6.47729 6.72391 6.47729 6.82243C6.47638 9.16756 7.85091 11.2729 9.97891 12.1867ZM7.38625 6.59465L7.39164 6.51252C7.54978 3.93272 9.66702 1.91227 12.2121 1.91227C14.8793 1.91227 17.0486 4.11479 17.0509 6.78076L17.0482 6.82868C17.0464 8.28943 16.4048 9.66486 15.2837 10.6096L15.0703 10.7748C15.0226 10.8141 14.9745 10.8533 14.9148 10.8953C14.807 10.9697 14.6928 11.0367 14.5769 11.1033L14.5126 11.143C14.4156 11.196 14.3136 11.2429 14.2075 11.2908L14.0884 11.3492C14.0201 11.378 13.9483 11.403 13.8772 11.4281L13.7289 11.4824C13.7002 11.4934 13.671 11.5052 13.6427 11.5139C13.5874 11.5312 13.5308 11.5445 13.4746 11.5586L13.2953 11.6052C13.2567 11.6157 13.2185 11.6266 13.1844 11.6339C13.1246 11.6458 13.0635 11.654 13.0029 11.6627L12.8321 11.6887C12.7908 11.696 12.7494 11.7033 12.7031 11.7078C12.5535 11.7238 12.403 11.7324 12.2502 11.7338L12.208 11.7334H12.2071C11.7151 11.7329 11.2321 11.6586 10.7701 11.5117C10.7301 11.4989 10.6911 11.4829 10.652 11.4679L10.4831 11.4054C10.4305 11.3867 10.3784 11.3684 10.3281 11.347C8.53433 10.5768 7.375 8.80029 7.375 6.82271C7.375 6.74563 7.38087 6.66989 7.38625 6.59465Z" fill="#014E2E" stroke="#014E2E" stroke-width="0.4"/>
<rect x="14.33" y="15.5" width="15" height="15" rx="7.5" fill="#939956" stroke="white" stroke-width="2"/>
</svg>
