<svg width="24" height="24" viewBox="0 0 24 24" fill="none" xmlns="http://www.w3.org/2000/svg">
<path fill-rule="evenodd" clip-rule="evenodd" d="M21.7584 20.746L20.4161 5.27116C20.3874 4.9276 20.1045 4.66748 19.7737 4.66748H17.0125C16.9741 2.08589 14.9127 0 12.3816 0C9.85043 0 7.78907 2.08589 7.75072 4.66748H4.98945C4.65388 4.66748 4.37584 4.9276 4.34708 5.27116L3.00479 20.746C3.00479 20.7558 3.0036 20.7656 3.0024 20.7755C3.0012 20.7853 3 20.7951 3 20.8049C3 22.5668 4.57718 24 6.51869 24H18.2445C20.186 24 21.7631 22.5668 21.7631 20.8049C21.7631 20.7853 21.7631 20.7656 21.7584 20.746ZM12.3816 1.32515C14.1985 1.32515 15.6797 2.81718 15.7181 4.66748H9.04506C9.08341 2.81718 10.5647 1.32515 12.3816 1.32515ZM6.51869 22.6748H18.2445C19.4573 22.6748 20.4497 21.8503 20.4688 20.8343L19.1793 5.99754H17.0125V8.00981C17.0125 8.37794 16.7249 8.67237 16.3653 8.67237C16.0057 8.67237 15.7181 8.37794 15.7181 8.00981V5.99754H9.04026V8.00981C9.04026 8.37794 8.75263 8.67237 8.3931 8.67237C8.03355 8.67237 7.74592 8.37794 7.74592 8.00981V5.99754H5.5791L4.29434 20.8343C4.31352 21.8503 5.30105 22.6748 6.51869 22.6748Z" fill="#014E2E"/>
</svg>
