<svg width="45" height="44" viewBox="0 0 45 44" fill="none" xmlns="http://www.w3.org/2000/svg">
<circle cx="22.5" cy="22" r="21.5" fill="white" stroke="#DEDEDE"/>
<g clip-path="url(#clip0_15_2212)">
<path d="M33.5 22C33.5 15.928 28.572 11 22.5 11C16.428 11 11.5 15.928 11.5 22C11.5 27.4927 15.526 32.0467 20.7913 32.868V25.1753H17.9827V22H20.7913V19.58C20.7913 16.8227 22.4267 15.2973 24.942 15.2973C26.1447 15.2973 27.3913 15.532 27.3913 15.532V18.2233H26.0127C24.6487 18.2233 24.2087 19.0813 24.2087 19.9467V22.0073H27.2667L26.7753 25.1827H24.2087V32.8753C29.474 32.054 33.5 27.5 33.5 22.0073" fill="#014E2E"/>
</g>
<defs>
<clipPath id="clip0_15_2212">
<rect width="22" height="21.868" fill="white" transform="translate(11.5 11)"/>
</clipPath>
</defs>
</svg>
