<svg width="47" height="46" viewBox="0 0 47 46" fill="none" xmlns="http://www.w3.org/2000/svg">
<g clip-path="url(#clip0_11501_1130)">
<path d="M23.5 45.0418C35.6733 45.0418 45.5417 35.1734 45.5417 23.0002C45.5417 10.8269 35.6733 0.958496 23.5 0.958496C11.3267 0.958496 1.45833 10.8269 1.45833 23.0002C1.45833 35.1734 11.3267 45.0418 23.5 45.0418Z" stroke="#8A941E" stroke-width="0.958333"/>
<path fill-rule="evenodd" clip-rule="evenodd" d="M22.0076 28.8565V27.4137C21.3291 26.8498 21.0768 25.9213 21.3765 25.0916C21.6763 24.2618 22.4638 23.709 23.3461 23.709C24.2282 23.709 25.0158 24.2618 25.3156 25.0916C25.6153 25.9213 25.363 26.8498 24.6845 27.4137V28.8565C24.6845 29.5956 24.0853 30.195 23.3461 30.195C22.6068 30.195 22.0076 29.5956 22.0076 28.8565ZM23.3246 24.2797C22.9126 24.2934 22.5239 24.4738 22.2476 24.7796H22.2447C21.9382 25.0922 21.785 25.5241 21.8257 25.96C21.8664 26.396 22.097 26.7918 22.4561 27.0423C22.531 27.0956 22.5757 27.1818 22.5761 27.2737V28.8536C22.5761 29.2773 22.9195 29.6207 23.3432 29.6207C23.7668 29.6207 24.1103 29.2773 24.1103 28.8536V27.2708C24.1107 27.1789 24.1554 27.0928 24.2302 27.0395C24.7672 26.654 24.9942 25.9663 24.7922 25.3371C24.5903 24.7079 24.0055 24.2806 23.3447 24.2797H23.3246Z" fill="#014E2E"/>
<path d="M22.0076 27.414H22.2472V27.3016L22.1607 27.2297L22.0076 27.414ZM24.6845 27.414L24.5314 27.2297L24.4449 27.3016V27.414H24.6845ZM22.2476 24.78V25.0195H22.3539L22.4253 24.9406L22.2476 24.78ZM23.3246 24.28V24.0402L23.3167 24.0405L23.3246 24.28ZM22.2447 24.78V24.5404H22.1441L22.0736 24.6123L22.2447 24.78ZM22.4561 27.0426L22.595 26.8475L22.5932 26.8461L22.4561 27.0426ZM22.5761 27.274H22.8157V27.273L22.5761 27.274ZM24.1103 27.2711L23.8707 27.2701V27.2711H24.1103ZM21.768 27.414V28.8568H22.2472V27.414H21.768ZM21.1512 25.0104C20.8171 25.9351 21.0983 26.9699 21.8544 27.5983L22.1607 27.2297C21.5599 26.7305 21.3364 25.9081 21.6018 25.1733L21.1512 25.0104ZM23.3461 23.4697C22.3629 23.4697 21.4852 24.0858 21.1512 25.0104L21.6018 25.1733C21.8673 24.4385 22.5648 23.9489 23.3461 23.9489V23.4697ZM25.541 25.0104C25.2069 24.0858 24.3291 23.4697 23.3461 23.4697V23.9489C24.1273 23.9489 24.8248 24.4385 25.0903 25.1733L25.541 25.0104ZM24.8376 27.5983C25.5938 26.9699 25.8749 25.9351 25.541 25.0104L25.0903 25.1733C25.3557 25.9081 25.1322 26.7305 24.5314 27.2297L24.8376 27.5983ZM24.9241 28.8568V27.414H24.4449V28.8568H24.9241ZM23.3461 30.4349C24.2176 30.4349 24.9241 29.7283 24.9241 28.8568H24.4449C24.4449 29.4637 23.9529 29.9557 23.3461 29.9557V30.4349ZM21.768 28.8568C21.768 29.7283 22.4745 30.4349 23.3461 30.4349V29.9557C22.7392 29.9557 22.2472 29.4637 22.2472 28.8568H21.768ZM22.4253 24.9406C22.6581 24.683 22.9856 24.531 23.3326 24.5194L23.3167 24.0405C22.8397 24.0564 22.3898 24.2652 22.0698 24.6192L22.4253 24.9406ZM22.2447 25.0195H22.2476V24.5404H22.2447V25.0195ZM22.0642 25.938C22.03 25.5722 22.1586 25.21 22.4158 24.9477L22.0736 24.6123C21.7178 24.9753 21.5398 25.4765 21.5872 25.9826L22.0642 25.938ZM22.5932 26.8461C22.2919 26.636 22.0984 26.3038 22.0642 25.938L21.5872 25.9826C21.6344 26.4887 21.9022 26.9483 22.319 27.2391L22.5932 26.8461ZM22.8157 27.273C22.8149 27.1038 22.7328 26.9455 22.595 26.8475L22.3171 27.2378C22.3292 27.2464 22.3365 27.2603 22.3365 27.2752L22.8157 27.273ZM22.8157 28.8539V27.274H22.3365V28.8539H22.8157ZM23.3432 29.3814C23.0519 29.3814 22.8157 29.1453 22.8157 28.8539H22.3365C22.3365 29.4099 22.7872 29.8606 23.3432 29.8606V29.3814ZM23.8707 28.8539C23.8707 29.1453 23.6345 29.3814 23.3432 29.3814V29.8606C23.8991 29.8606 24.3498 29.4099 24.3498 28.8539H23.8707ZM23.8707 27.2711V28.8539H24.3498V27.2711H23.8707ZM24.0913 26.8446C23.9536 26.9426 23.8714 27.101 23.8707 27.2701L24.3498 27.2723C24.3499 27.2574 24.3571 27.2435 24.3692 27.2349L24.0913 26.8446ZM24.5641 25.4106C24.7343 25.9409 24.543 26.5204 24.0905 26.8452L24.3692 27.2349C24.9906 26.7889 25.2541 25.9925 25.0204 25.2642L24.5641 25.4106ZM23.3443 24.5196C23.9012 24.5203 24.3939 24.8804 24.5641 25.4106L25.0204 25.2642C24.7867 24.536 24.1099 24.0416 23.3449 24.0404L23.3443 24.5196ZM23.3246 24.5196H23.3443L23.3449 24.0404L23.3246 24.0402V24.5196Z" fill="#014E2E"/>
<path fill-rule="evenodd" clip-rule="evenodd" d="M23.3446 7.82373C19.4 7.82373 16.2022 11.0214 16.2022 14.9661V18.6802H15.9165C14.812 18.6802 13.9167 19.5755 13.9167 20.68V31.7935C13.9167 32.898 14.812 33.7934 15.9165 33.7934H30.744C31.8486 33.7934 32.744 32.898 32.744 31.7935V20.68C32.744 19.5755 31.8486 18.6802 30.744 18.6802H30.4584V14.9661C30.4585 11.0327 27.278 7.83947 23.3446 7.82373ZM16.7737 14.9661C16.7737 11.345 19.7091 8.40941 23.3303 8.40941C26.9514 8.40941 29.887 11.345 29.887 14.9661V18.6802H16.7737V14.9661ZM32.1725 31.7935V20.68H32.1868C32.1869 20.2987 32.0344 19.9332 31.7634 19.6648C31.4924 19.3965 31.1255 19.2477 30.7441 19.2515H15.9165C15.1276 19.2515 14.488 19.8911 14.488 20.68V31.7935C14.488 32.5824 15.1276 33.222 15.9165 33.222H30.7441C31.123 33.222 31.4863 33.0715 31.7542 32.8036C32.0221 32.5357 32.1725 32.1723 32.1725 31.7935Z" fill="#014E2E"/>
<path d="M23.3446 7.82355L23.3461 7.46094H23.3446V7.82355ZM16.2022 18.68V19.0426H16.5648V18.68H16.2022ZM30.4584 18.68H30.0958V19.0426H30.4584V18.68ZM29.887 18.68V19.0426H30.2496V18.68H29.887ZM16.7736 18.68H16.411V19.0426H16.7736V18.68ZM32.1725 20.6798V20.3172H31.81V20.6798H32.1725ZM32.1868 20.6798V21.0425H32.5494V20.6798H32.1868ZM30.7441 19.2513V19.614H30.7477L30.7441 19.2513ZM16.5648 14.966C16.5648 11.2216 19.6003 8.18617 23.3446 8.18617V7.46094C19.1997 7.46094 15.8397 10.8211 15.8397 14.966H16.5648ZM16.5648 18.68V14.966H15.8397V18.68H16.5648ZM15.9165 19.0426H16.2022V18.3173H15.9165V19.0426ZM14.2793 20.6798C14.2793 19.7756 15.0123 19.0426 15.9165 19.0426V18.3173C14.6117 18.3173 13.554 19.3751 13.554 20.6798H14.2793ZM14.2793 31.7933V20.6798H13.554V31.7933H14.2793ZM15.9165 33.4306C15.0123 33.4306 14.2793 32.6976 14.2793 31.7933H13.554C13.554 33.0981 14.6117 34.1558 15.9165 34.1558V33.4306ZM30.744 33.4306H15.9165V34.1558H30.744V33.4306ZM32.3814 31.7933C32.3814 32.6976 31.6483 33.4306 30.744 33.4306V34.1558C32.0488 34.1558 33.1065 33.0981 33.1065 31.7933H32.3814ZM32.3814 20.6798V31.7933H33.1065V20.6798H32.3814ZM30.744 19.0426C31.6483 19.0426 32.3814 19.7756 32.3814 20.6798H33.1065C33.1065 19.3751 32.0488 18.3173 30.744 18.3173V19.0426ZM30.4584 19.0426H30.744V18.3173H30.4584V19.0426ZM30.0958 14.966V18.68H30.821V14.966H30.0958ZM23.3431 8.18617C27.0769 8.2011 30.0958 11.2321 30.0958 14.966H30.821C30.821 10.8328 27.4792 7.47747 23.3461 7.46094L23.3431 8.18617ZM23.3303 8.04661C19.5089 8.04661 16.411 11.1445 16.411 14.966H17.1362C17.1362 11.545 19.9094 8.77184 23.3303 8.77184V8.04661ZM30.2496 14.966C30.2496 11.1445 27.1517 8.04661 23.3303 8.04661V8.77184C26.7512 8.77184 29.5244 11.545 29.5244 14.966H30.2496ZM30.2496 18.68V14.966H29.5244V18.68H30.2496ZM16.7736 19.0426H29.887V18.3173H16.7736V19.0426ZM16.411 14.966V18.68H17.1362V14.966H16.411ZM31.81 20.6798V31.7933H32.5352V20.6798H31.81ZM32.1868 20.3172H32.1725V21.0425H32.1868V20.3172ZM31.5083 19.9224C31.7105 20.1226 31.8243 20.3953 31.8243 20.6798H32.5494C32.5494 20.2017 32.3584 19.7433 32.0185 19.407L31.5083 19.9224ZM30.7477 19.614C31.0322 19.6111 31.3061 19.7222 31.5083 19.9224L32.0185 19.407C31.6788 19.0706 31.2186 18.884 30.7405 18.8888L30.7477 19.614ZM15.9165 19.614H30.7441V18.8887H15.9165V19.614ZM14.8507 20.6798C14.8507 20.0911 15.3279 19.614 15.9165 19.614V18.8887C14.9273 18.8887 14.1255 19.6906 14.1255 20.6798H14.8507ZM14.8507 31.7933V20.6798H14.1255V31.7933H14.8507ZM15.9165 32.8592C15.3279 32.8592 14.8507 32.382 14.8507 31.7933H14.1255C14.1255 32.7825 14.9273 33.5845 15.9165 33.5845V32.8592ZM30.7441 32.8592H15.9165V33.5845H30.7441V32.8592ZM31.4978 32.5471C31.2979 32.7469 31.0267 32.8592 30.7441 32.8592V33.5845C31.2191 33.5845 31.6747 33.3958 32.0106 33.0599L31.4978 32.5471ZM31.81 31.7933C31.81 32.076 31.6977 32.3471 31.4978 32.5471L32.0106 33.0599C32.3465 32.724 32.5352 32.2684 32.5352 31.7933H31.81Z" fill="#014E2E"/>
</g>
<defs>
<clipPath id="clip0_11501_1130">
<rect width="46" height="46" fill="white" transform="translate(0.5)"/>
</clipPath>
</defs>
</svg>
