<svg width="47" height="46" viewBox="0 0 47 46" fill="none" xmlns="http://www.w3.org/2000/svg">
<g clip-path="url(#clip0_11526_1251)">
<g clip-path="url(#clip1_11526_1251)">
<path d="M23.4999 45.0418C35.6732 45.0418 45.5416 35.1734 45.5416 23.0002C45.5416 10.8269 35.6732 0.958496 23.4999 0.958496C11.3266 0.958496 1.45825 10.8269 1.45825 23.0002C1.45825 35.1734 11.3266 45.0418 23.4999 45.0418Z" stroke="#8A941E" stroke-width="0.958333"/>
<path d="M36.6518 28.9435C36.3624 28.7128 35.9573 28.7705 35.7258 29.059C32.9477 32.6656 28.7227 34.7431 24.1796 34.7431C20.1572 34.7431 16.3373 33.0984 13.5883 30.1843L16.7136 30.4727C17.0608 30.5017 17.3791 30.242 17.437 29.8957C17.466 29.5495 17.2055 29.2321 16.8583 29.1744L12.8648 28.7993C12.5175 28.7705 12.1992 28.857 11.9388 29.0879C11.6784 29.3186 11.5337 29.6072 11.5047 29.9534L11.2153 33.9351C11.1864 34.2814 11.4469 34.5987 11.823 34.6276C11.8519 34.6276 11.8519 34.6276 11.8809 34.6276C12.2282 34.6276 12.5175 34.368 12.5465 34.0217L12.749 31.1652C15.7297 34.2814 19.8677 36.0703 24.2085 36.0703C29.1858 36.0703 33.787 33.8197 36.7965 29.8669C36.999 29.5783 36.9411 29.1744 36.6518 28.9435Z" fill="#014E2E"/>
<path d="M11.5047 16.7102C11.6205 16.7967 11.7652 16.8544 11.9098 16.8544C12.1124 16.8544 12.2861 16.7679 12.4308 16.5947C15.2088 13.0169 19.4047 10.9684 23.948 10.9684C27.9704 10.9684 31.7613 12.613 34.4814 15.4983L31.4719 15.2963C31.1246 15.2675 30.8063 15.556 30.7774 15.9022C30.7484 16.2484 31.0379 16.5658 31.3851 16.5947L35.3785 16.8832C35.4075 16.8832 35.4364 16.8832 35.4654 16.8832C35.7547 16.8832 36.0441 16.7679 36.2466 16.5947C36.2466 16.5947 36.2466 16.5947 36.2755 16.5947C36.536 16.3639 36.6807 16.0465 36.6807 15.7291L36.8544 11.7474C36.8833 11.4012 36.5939 11.0838 36.2177 11.0549C35.8415 11.0261 35.5521 11.3146 35.5231 11.6896L35.3785 14.6327C32.4558 11.43 28.3176 9.64111 23.948 9.64111C18.9997 9.64111 14.4275 11.8917 11.389 15.7868C11.1574 16.0754 11.2153 16.4793 11.5047 16.7102Z" fill="#014E2E"/>
</g>
</g>
<defs>
<clipPath id="clip0_11526_1251">
<rect width="46" height="46" fill="white" transform="translate(0.5)"/>
</clipPath>
<clipPath id="clip1_11526_1251">
<rect width="46" height="46" fill="white" transform="translate(0.5)"/>
</clipPath>
</defs>
</svg>
