<svg width="47" height="46" viewBox="0 0 47 46" fill="none" xmlns="http://www.w3.org/2000/svg">
<g clip-path="url(#clip0_11526_1218)">
<g clip-path="url(#clip1_11526_1218)">
<g clip-path="url(#clip2_11526_1218)">
<path d="M23.2499 45.0418C35.4232 45.0418 45.2916 35.1734 45.2916 23.0002C45.2916 10.8269 35.4232 0.958496 23.2499 0.958496C11.0766 0.958496 1.20825 10.8269 1.20825 23.0002C1.20825 35.1734 11.0766 45.0418 23.2499 45.0418Z" stroke="#8A941E" stroke-width="0.958333"/>
<path fill-rule="evenodd" clip-rule="evenodd" d="M36.4975 22.1638C36.5772 22.266 36.6203 22.3917 36.62 22.521V27.6756C36.62 28.3172 36.0977 28.8372 35.4533 28.8372H33.2046C32.9173 30.3649 31.5777 31.4722 30.0167 31.4722C28.4557 31.4722 27.1161 30.3649 26.8288 28.8372H21.0479C20.7606 30.3649 19.421 31.4722 17.86 31.4722C16.299 31.4722 14.9595 30.3649 14.6721 28.8372H13.0008C12.6787 28.8372 12.4175 28.5772 12.4175 28.2564C12.4175 27.9356 12.6787 27.6756 13.0008 27.6756H14.6663C14.9402 26.1346 16.2853 25.0115 17.8571 25.0115C19.4288 25.0115 20.7741 26.1346 21.0479 27.6756H26.8346C27.1085 26.1346 28.4537 25.0115 30.0254 25.0115C31.5972 25.0115 32.9424 26.1346 33.2163 27.6756H35.4621V22.7185L34.0037 20.8628H25.7642C25.442 20.8628 25.1809 20.6028 25.1809 20.2819V13.7827H13.2925C12.9703 13.7827 12.7092 13.5227 12.7092 13.2019C12.7092 12.8811 12.9703 12.6211 13.2925 12.6211H25.7642C26.0864 12.6211 26.3475 12.8811 26.3475 13.2019V14.1022H29.7688C31.117 14.1068 32.3439 14.8784 32.9275 16.0885L34.8059 20.009L36.4975 22.1638ZM29.7775 15.2608H26.3475V19.7099H33.3796L31.8833 16.5851C31.4965 15.7764 30.6772 15.2611 29.7775 15.2608ZM17.8571 30.3125C17.0155 30.3137 16.2561 29.8097 15.9334 29.0356C15.6108 28.2617 15.7885 27.3703 16.3837 26.7778C16.9789 26.1852 17.874 26.0082 18.6513 26.3295C19.4287 26.6507 19.9349 27.4068 19.9338 28.2448C19.9322 29.3861 19.0033 30.3109 17.8571 30.3125ZM28.0951 29.0336C28.4169 29.8077 29.1753 30.3125 30.0167 30.3125C31.1641 30.3125 32.0947 29.3872 32.0963 28.2448C32.0974 27.4071 31.5915 26.6512 30.8145 26.3298C30.0375 26.0084 29.1426 26.1849 28.5472 26.7767C27.9519 27.3687 27.7734 28.2596 28.0951 29.0336Z" fill="#014E2E"/>
<path d="M15.7135 23.784C15.7135 23.4632 15.4522 23.2031 15.1301 23.2031H11.9217C11.5996 23.2031 11.3384 23.4632 11.3384 23.784C11.3384 24.1047 11.5996 24.3647 11.9217 24.3647H15.1301C15.4522 24.3647 15.7135 24.1047 15.7135 23.784Z" fill="#014E2E"/>
<path d="M10.4632 20.8799H17.1716C17.4937 20.8799 17.7549 20.6198 17.7549 20.299C17.7549 19.9783 17.4937 19.7183 17.1716 19.7183H10.4632C10.141 19.7183 9.87988 19.9783 9.87988 20.299C9.87988 20.6198 10.141 20.8799 10.4632 20.8799Z" fill="#014E2E"/>
<path d="M11.3384 16.8142C11.3384 17.135 11.5996 17.395 11.9217 17.395H18.63C18.9522 17.395 19.2134 17.135 19.2134 16.8142C19.2134 16.4934 18.9522 16.2334 18.63 16.2334H11.9217C11.5996 16.2334 11.3384 16.4934 11.3384 16.8142Z" fill="#014E2E"/>
</g>
</g>
</g>
<defs>
<clipPath id="clip0_11526_1218">
<rect width="46" height="46" fill="white" transform="translate(0.25)"/>
</clipPath>
<clipPath id="clip1_11526_1218">
<rect width="46" height="46" fill="white" transform="translate(0.25)"/>
</clipPath>
<clipPath id="clip2_11526_1218">
<rect width="46" height="46" fill="white" transform="translate(0.25)"/>
</clipPath>
</defs>
</svg>
