<svg width="46" height="46" viewBox="0 0 46 46" fill="none" xmlns="http://www.w3.org/2000/svg">
<g clip-path="url(#clip0_11501_1148)">
<g clip-path="url(#clip1_11501_1148)">
<g clip-path="url(#clip2_11501_1148)">
<path d="M23 45C35.1503 45 45 35.1503 45 23C45 10.8497 35.1503 1 23 1C10.8497 1 1 10.8497 1 23C1 35.1503 10.8497 45 23 45Z" stroke="#8A941E"/>
<path d="M23.0002 37.348C30.9243 37.348 37.348 30.9243 37.348 23.0002C37.348 15.0761 30.9243 8.65234 23.0002 8.65234C15.0761 8.65234 8.65234 15.0761 8.65234 23.0002C8.65234 30.9243 15.0761 37.348 23.0002 37.348Z" stroke="#014E2E" stroke-width="1.21622"/>
<path d="M16.9724 22.0732C16.7164 22.0732 16.5088 21.8656 16.5088 21.6096C16.5088 21.3535 16.7164 21.146 16.9724 21.146H19.7541C20.0102 21.146 20.2178 21.3535 20.2178 21.6096C20.2178 21.8656 20.0102 22.0732 19.7541 22.0732H16.9724Z" fill="#014E2E" stroke="#014E2E" stroke-width="0.810811"/>
<path d="M26.2454 22.0732C25.9893 22.0732 25.7817 21.8656 25.7817 21.6096C25.7817 21.3535 25.9893 21.146 26.2454 21.146H29.0271C29.2831 21.146 29.4907 21.3535 29.4907 21.6096C29.4907 21.8656 29.2831 22.0732 29.0271 22.0732H26.2454Z" fill="#014E2E" stroke="#014E2E" stroke-width="0.810811"/>
<path d="M15.23 28.174C15.6526 28.7415 16.1611 29.3082 16.7575 29.8375C18.4693 31.3569 20.5508 32.2725 22.9995 32.2725C25.4482 32.2725 27.5297 31.3569 29.2416 29.8375C29.838 29.3082 30.3465 28.7415 30.769 28.174C31.0248 27.8304 31.1969 27.5594 31.2867 27.3972C31.4107 27.1731 31.3296 26.891 31.1056 26.767C30.8815 26.6431 30.5994 26.7242 30.4754 26.9482C30.4049 27.0757 30.2549 27.3119 30.0253 27.6202C29.6388 28.1393 29.1723 28.6593 28.6261 29.144C27.0732 30.5223 25.2024 31.3453 22.9995 31.3453C20.7967 31.3453 18.9259 30.5223 17.373 29.144C16.8268 28.6593 16.3603 28.1393 15.9738 27.6202C15.7442 27.3119 15.5942 27.0757 15.5237 26.9482C15.3997 26.7242 15.1176 26.6431 14.8935 26.767C14.6695 26.891 14.5884 27.1731 14.7123 27.3972C14.8021 27.5594 14.9743 27.8304 15.23 28.174Z" fill="#014E2E" stroke="#014E2E" stroke-width="0.5"/>
</g>
</g>
</g>
<defs>
<clipPath id="clip0_11501_1148">
<rect width="46" height="46" fill="white"/>
</clipPath>
<clipPath id="clip1_11501_1148">
<rect width="46" height="46" fill="white"/>
</clipPath>
<clipPath id="clip2_11501_1148">
<rect width="46" height="46" fill="white"/>
</clipPath>
</defs>
</svg>
