<svg width="45" height="44" viewBox="0 0 45 44" fill="none" xmlns="http://www.w3.org/2000/svg">
<circle cx="22.5" cy="22" r="21.5" fill="white" stroke="#DEDEDE"/>
<path fill-rule="evenodd" clip-rule="evenodd" d="M17.8792 21.9995C17.8792 24.5532 19.9499 26.6202 22.4999 26.6202C25.0499 26.6202 27.1206 24.5495 27.1206 21.9995C27.1206 19.4495 25.0536 17.3788 22.4999 17.3788C19.9463 17.3788 17.8792 19.4459 17.8792 21.9995ZM25.4999 21.9995C25.4999 23.6568 24.1572 24.9995 22.4999 24.9995C20.8426 24.9995 19.4999 23.6568 19.4999 21.9995C19.4999 20.3422 20.8426 18.9995 22.4999 18.9995C24.1572 18.9995 25.4999 20.3422 25.4999 21.9995Z" fill="#014E2E"/>
<path d="M28.3866 17.1958C28.3866 17.7919 27.9034 18.2751 27.3073 18.2751C26.7112 18.2751 26.228 17.7919 26.228 17.1958C26.228 16.5998 26.7112 16.1166 27.3073 16.1166C27.9034 16.1166 28.3866 16.5998 28.3866 17.1958Z" fill="#014E2E"/>
<path fill-rule="evenodd" clip-rule="evenodd" d="M16.6061 13.4715C16.0134 13.702 15.5122 14.0093 15.011 14.5105C14.5098 15.008 14.2024 15.5129 13.972 16.1019C13.7488 16.6727 13.5988 17.3276 13.5549 18.2861C13.511 19.2446 13.5 19.5519 13.5 21.9958C13.5 24.4398 13.511 24.7471 13.5549 25.7056C13.5988 26.6641 13.7524 27.319 13.972 27.8897C14.2024 28.4824 14.5098 28.9837 15.011 29.4848C15.5122 29.9861 16.0134 30.2934 16.6061 30.5239C17.1768 30.7471 17.8317 30.897 18.7902 30.9409C19.7488 30.9848 20.0561 30.9958 22.5 30.9958C24.9439 30.9958 25.2512 30.9848 26.2097 30.9409C27.1683 30.897 27.8232 30.7434 28.3939 30.5239C28.9866 30.2934 29.4878 29.9861 29.989 29.4848C30.4902 28.9837 30.7975 28.4824 31.028 27.8897C31.2512 27.319 31.4012 26.6641 31.4451 25.7056C31.489 24.7471 31.5 24.4398 31.5 21.9958C31.5 19.5519 31.489 19.2446 31.4451 18.2861C31.4012 17.3276 31.2475 16.6727 31.028 16.1019C30.7975 15.5129 30.4902 15.008 29.9927 14.5105C29.4915 14.0093 28.9902 13.702 28.3976 13.4715C27.8268 13.2483 27.1719 13.0983 26.2134 13.0544C25.2549 13.0105 24.9476 12.9995 22.5036 12.9995C20.0597 12.9995 19.7524 13.0105 18.7939 13.0544C17.8317 13.0946 17.1768 13.2483 16.6061 13.4715ZM26.1366 14.6715C27.0146 14.7117 27.4902 14.858 27.8085 14.9824C28.2292 15.1471 28.5293 15.341 28.8439 15.6556C29.1585 15.9702 29.3524 16.2703 29.5171 16.691C29.6414 17.0093 29.7878 17.4849 29.828 18.3629C29.8719 19.3105 29.8793 19.5958 29.8793 21.9995C29.8793 24.4031 29.8683 24.6885 29.828 25.6361C29.7878 26.5141 29.6414 26.9898 29.5171 27.308C29.3524 27.7288 29.1585 28.0288 28.8439 28.3434C28.5293 28.658 28.2292 28.8519 27.8085 29.0166C27.4902 29.141 27.0146 29.2873 26.1366 29.3275C25.189 29.3714 24.9037 29.3788 22.5 29.3788C20.0964 29.3788 19.811 29.3678 18.8634 29.3275C17.9854 29.2873 17.5097 29.141 17.1915 29.0166C16.7707 28.8519 16.4707 28.658 16.1561 28.3434C15.8415 28.0288 15.6476 27.7288 15.4829 27.308C15.3585 26.9898 15.2122 26.5141 15.1719 25.6361C15.128 24.6885 15.1207 24.4031 15.1207 21.9995C15.1207 19.5958 15.1317 19.3105 15.1719 18.3629C15.2122 17.4849 15.3585 17.0093 15.4829 16.691C15.6476 16.2703 15.8415 15.9702 16.1561 15.6556C16.4707 15.341 16.7707 15.1471 17.1915 14.9824C17.5097 14.858 17.9854 14.7117 18.8634 14.6715C19.811 14.6276 20.0964 14.6202 22.5 14.6202C24.9037 14.6202 25.189 14.6276 26.1366 14.6715Z" fill="#014E2E"/>
</svg>
