<svg width="18" height="17" viewBox="0 0 18 17" fill="none" xmlns="http://www.w3.org/2000/svg">
<path fill-rule="evenodd" clip-rule="evenodd" d="M8.83199 2.16979L8.95398 2.00942C10.1853 0.431005 11.7763 -0.216743 13.6761 0.109136C17.3398 0.737411 19.3471 5.12904 16.9721 8.79502C15.3461 11.3047 12.7173 13.7977 9.08857 16.2822C8.91446 16.4008 8.68308 16.3887 8.52272 16.2519L7.75699 15.5955C3.61164 12.0154 1.25432 9.54815 0.640359 8.1112C-0.331549 5.83749 -0.159733 3.86619 0.902665 2.31239C1.68958 1.16065 2.96446 0.316461 3.9587 0.111999C5.8756 -0.282033 7.47922 0.36686 8.71401 2.00771L8.83199 2.16979ZM8.8549 15.3046C12.2374 12.9536 14.6812 10.6106 16.1886 8.28416C18.192 5.19089 16.5282 1.54953 13.5186 1.03351C11.7305 0.727101 10.3245 1.4493 9.2243 3.26655C9.04103 3.57009 8.60061 3.56665 8.42192 3.26025C7.32516 1.38172 5.92829 0.664675 4.14656 1.03064C3.38827 1.18642 2.32301 1.89202 1.67355 2.84273C0.794993 4.12849 0.652386 5.76018 1.49944 7.74179C2.03608 8.99662 4.33613 11.4015 8.35491 14.8739L8.8549 15.3046Z" fill="#014E2E"/>
</svg>
