<svg width="27" height="21" viewBox="0 0 27 21" fill="none" xmlns="http://www.w3.org/2000/svg">
<path d="M25.755 20.4284V20.4797H25.8042C25.8128 20.4797 25.8213 20.4776 25.8299 20.4733C25.8363 20.469 25.8406 20.4605 25.8406 20.454C25.8406 20.4455 25.8363 20.4391 25.8299 20.4348C25.8213 20.4305 25.8128 20.4284 25.8042 20.4284H25.755ZM25.8042 20.3898C25.8256 20.3877 25.8449 20.3941 25.862 20.407C25.8748 20.4177 25.8834 20.4348 25.8812 20.4519C25.8812 20.4669 25.877 20.4819 25.8641 20.4926C25.8513 20.5033 25.8342 20.5097 25.817 20.5118L25.8812 20.5846H25.832L25.7721 20.5118H25.7528V20.5846H25.7122V20.3898H25.8042ZM25.7914 20.653C25.8128 20.653 25.8342 20.6488 25.8556 20.6402C25.8748 20.6316 25.8919 20.6209 25.9069 20.606C25.9219 20.591 25.9347 20.5739 25.9412 20.5546C25.9583 20.514 25.9583 20.4669 25.9412 20.4262C25.9326 20.407 25.9219 20.3898 25.9069 20.3749C25.8919 20.3599 25.8748 20.3492 25.8556 20.3406C25.8363 20.3321 25.8149 20.3278 25.7914 20.3278C25.77 20.3278 25.7464 20.3321 25.7272 20.3406C25.7079 20.3492 25.6887 20.3599 25.6737 20.3749C25.6266 20.4219 25.6138 20.4947 25.6394 20.5568C25.648 20.576 25.6587 20.5931 25.6737 20.6081C25.6887 20.6231 25.7058 20.6359 25.7272 20.6423C25.7464 20.6509 25.7678 20.6552 25.7914 20.653ZM25.7914 20.2807C25.8491 20.2807 25.9026 20.3021 25.9433 20.3428C25.9626 20.362 25.9775 20.3856 25.9882 20.4091C26.0096 20.4605 26.0096 20.5204 25.9882 20.5717C25.9775 20.5974 25.9626 20.6188 25.9433 20.6381C25.924 20.6573 25.9005 20.6723 25.8748 20.683C25.8491 20.6937 25.8192 20.7001 25.7914 20.7001C25.7614 20.7001 25.7336 20.6937 25.7058 20.683C25.6801 20.6723 25.6566 20.6573 25.6373 20.6381C25.618 20.6188 25.6031 20.5953 25.5924 20.5696C25.571 20.5182 25.571 20.4583 25.5924 20.407C25.6031 20.3813 25.618 20.3599 25.6373 20.3406C25.6566 20.3214 25.6801 20.3064 25.7058 20.2957C25.7336 20.285 25.7614 20.2786 25.7914 20.2786M5.99768 19.5253C5.99768 19.153 6.24162 18.847 6.64177 18.847C7.02267 18.847 7.28159 19.1402 7.28159 19.5253C7.28159 19.9105 7.02481 20.2037 6.64177 20.2037C6.24376 20.2037 5.99768 19.8977 5.99768 19.5253ZM7.71598 19.5253V18.464H7.25377V18.7229C7.10826 18.5324 6.88572 18.4126 6.584 18.4126C5.98912 18.4126 5.52263 18.8791 5.52263 19.5275C5.52263 20.1759 5.98912 20.6423 6.584 20.6423C6.88572 20.6423 7.10826 20.5225 7.25377 20.3321V20.5888H7.71384L7.71598 19.5253ZM23.3048 19.5253C23.3048 19.153 23.5488 18.847 23.9489 18.847C24.3298 18.847 24.5888 19.1402 24.5888 19.5253C24.5888 19.9105 24.332 20.2037 23.9489 20.2037C23.5488 20.2037 23.3048 19.8977 23.3048 19.5253ZM25.021 19.5253V17.6123H24.5588V18.7229C24.4133 18.5324 24.1908 18.4126 23.889 18.4126C23.2942 18.4126 22.8277 18.8791 22.8277 19.5275C22.8277 20.1759 23.2942 20.6423 23.889 20.6423C24.1908 20.6423 24.4133 20.5225 24.5588 20.3321V20.5888H25.021V19.5253ZM13.4422 18.8235C13.7397 18.8235 13.9301 19.0096 13.9793 19.337H12.8795C12.9265 19.0332 13.1127 18.8235 13.4422 18.8235ZM13.4508 18.4105C12.8281 18.4105 12.3937 18.862 12.3937 19.5253C12.3937 20.1994 12.8452 20.6402 13.4808 20.6402C13.7996 20.6402 14.0928 20.561 14.3495 20.3428L14.1227 20.0004C13.9451 20.1416 13.7183 20.2229 13.5064 20.2229C13.209 20.2229 12.9394 20.086 12.8709 19.7029H14.4458C14.4501 19.6452 14.4544 19.5874 14.4544 19.5253C14.4544 18.862 14.0457 18.4105 13.4508 18.4105ZM19.0209 19.5253C19.0209 19.153 19.2648 18.847 19.6649 18.847C20.0458 18.847 20.3048 19.1402 20.3048 19.5253C20.3048 19.9105 20.048 20.2037 19.6649 20.2037C19.2648 20.2037 19.0209 19.8977 19.0209 19.5253ZM20.7392 19.5253V18.464H20.2791V18.7229C20.1314 18.5324 19.911 18.4126 19.6093 18.4126C19.0144 18.4126 18.5479 18.8791 18.5479 19.5275C18.5479 20.1759 19.0144 20.6423 19.6093 20.6423C19.911 20.6423 20.1336 20.5225 20.2791 20.3321V20.5888H20.7413L20.7392 19.5253ZM16.4166 19.5253C16.4166 20.1694 16.8639 20.6402 17.5486 20.6402C17.8675 20.6402 18.0815 20.5696 18.3104 20.3877L18.0879 20.0154C17.9145 20.1395 17.7327 20.2058 17.5315 20.2058C17.1635 20.2015 16.8917 19.9341 16.8917 19.5275C16.8917 19.1209 17.1635 18.8534 17.5315 18.8491C17.7327 18.8491 17.9145 18.9155 18.0879 19.0396L18.3104 18.6673C18.0793 18.4854 17.8675 18.4148 17.5486 18.4148C16.8639 18.4105 16.4166 18.8812 16.4166 19.5253ZM22.3633 18.4105C22.098 18.4105 21.9246 18.5346 21.8048 18.7208V18.464H21.3469V20.5846H21.8091V19.3948C21.8091 19.0439 21.9589 18.8491 22.2606 18.8491C22.359 18.847 22.4575 18.8663 22.5495 18.9026L22.6907 18.4682C22.5901 18.4276 22.4553 18.4105 22.3633 18.4105ZM9.99707 18.633C9.77453 18.4875 9.46853 18.4105 9.13257 18.4105C8.59546 18.4105 8.24881 18.6673 8.24881 19.0888C8.24881 19.4355 8.50559 19.6473 8.98064 19.7136L9.1989 19.7436C9.45141 19.78 9.57124 19.8463 9.57124 19.9661C9.57124 20.1309 9.40219 20.2229 9.08763 20.2229C8.76879 20.2229 8.53769 20.1202 8.38148 20.0004L8.16535 20.3599C8.41786 20.5461 8.73883 20.6359 9.08335 20.6359C9.69535 20.6359 10.0506 20.347 10.0506 19.9426C10.0506 19.5703 9.77025 19.3755 9.31018 19.3071L9.09191 19.275C8.8929 19.2493 8.73241 19.2086 8.73241 19.0674C8.73241 18.9133 8.8822 18.8192 9.13685 18.8192C9.40861 18.8192 9.66967 18.9219 9.79806 19.0011L9.99707 18.633ZM15.9502 18.4105C15.6848 18.4105 15.5115 18.5346 15.3917 18.7208V18.4618H14.9337V20.5824H15.3959V19.3927C15.3959 19.0417 15.5457 18.847 15.8474 18.847C15.9459 18.8449 16.0443 18.8641 16.1363 18.9005L16.2776 18.4661C16.177 18.4276 16.0422 18.4105 15.9502 18.4105ZM12.0128 18.464H11.2574V17.8199H10.791V18.464H10.3608V18.8855H10.791V19.8527C10.791 20.3449 10.9814 20.6381 11.5271 20.6381C11.7282 20.6381 11.9572 20.576 12.1048 20.4733L11.9722 20.0774C11.8352 20.1566 11.6833 20.1973 11.5634 20.1973C11.3323 20.1973 11.2574 20.056 11.2574 19.842V18.8834H12.0128V18.464ZM5.11605 20.5867V19.2557C5.11605 18.755 4.79722 18.4169 4.28151 18.4126C4.00975 18.4083 3.73157 18.4918 3.53684 18.7892C3.39133 18.5538 3.16022 18.4126 2.83497 18.4126C2.60814 18.4126 2.38774 18.4789 2.21441 18.7272V18.464H1.7522V20.5846H2.21655V19.4076C2.21655 19.0396 2.41983 18.8427 2.73653 18.8427C3.04253 18.8427 3.19874 19.0417 3.19874 19.4012V20.5824H3.66523V19.4055C3.66523 19.0375 3.87708 18.8406 4.18522 18.8406C4.49978 18.8406 4.64957 19.0396 4.64957 19.3991V20.5803L5.11605 20.5867Z" fill="#231F20"/>
<path d="M26.0182 13.5295V13.2192H25.9369L25.8427 13.431L25.7507 13.2192H25.6694V13.5295H25.7272V13.2962L25.8149 13.4974H25.8748L25.9626 13.2962V13.5295H26.0182ZM25.5046 13.5295V13.2727H25.6074V13.2213H25.3441V13.2727H25.449V13.5295H25.5046Z" fill="#F79410"/>
<path d="M16.8361 14.8605H9.84515V2.29523H16.8361V14.8605Z" fill="#FF5F00"/>
<path d="M10.2881 8.57784C10.2881 6.02927 11.4821 3.75888 13.3395 2.29521C11.9337 1.18677 10.1939 0.583328 8.40289 0.587608C3.9905 0.587608 0.412659 4.16545 0.412659 8.57784C0.412659 12.9902 3.9905 16.5681 8.40289 16.5681C10.1939 16.5702 11.9337 15.9689 13.3395 14.8605C11.4821 13.3968 10.2881 11.1264 10.2881 8.57784Z" fill="#EB001B"/>
<path d="M26.2686 8.57784C26.2686 12.9902 22.6907 16.5681 18.2783 16.5681C16.4873 16.5702 14.7476 15.9689 13.3395 14.8605C15.1991 13.3968 16.391 11.1264 16.391 8.57784C16.391 6.02927 15.1969 3.75888 13.3395 2.29521C14.7454 1.18677 16.4873 0.583328 18.2783 0.587608C22.6907 0.587608 26.2686 4.16545 26.2686 8.57784Z" fill="#F79E1B"/>
</svg>
