<svg width="140" height="31" viewBox="0 0 140 31" fill="none" xmlns="http://www.w3.org/2000/svg">
<path fill-rule="evenodd" clip-rule="evenodd" d="M43.8803 2.83798C42.8791 2.99061 41.8687 3.44911 41.318 4.00058C39.882 5.43832 40.0236 7.87691 41.606 8.96434C41.9804 9.22152 43.082 9.62843 44.4669 10.0212C47.0163 10.744 47.4647 11.0248 47.4647 11.8976C47.4647 13.0119 46.1566 13.669 44.5332 13.3704C43.4607 13.1732 42.8252 12.7437 42.5728 12.0456L42.3818 11.5175H41.1227H39.8636L39.9527 12.0121C40.2123 13.4556 41.2066 14.6033 42.6893 15.1714C43.8214 15.6051 45.9081 15.6557 47.1645 15.2802C49.9677 14.4421 50.9413 11.1232 48.9283 9.26778C48.2355 8.62911 47.2126 8.22874 44.7858 7.64637C43.3285 7.29667 42.7473 6.93176 42.7473 6.36643C42.7473 4.88045 45.2819 4.28013 46.48 5.4823C46.7436 5.74678 46.9873 6.04428 47.0217 6.14334C47.0616 6.25793 47.5274 6.33569 48.3017 6.35669C49.5064 6.38971 49.5186 6.38621 49.4719 6.02434C49.446 5.82332 49.2549 5.30395 49.0473 4.87011C48.3044 3.31824 46.1884 2.48615 43.8803 2.83798ZM76.9104 2.7978C72.254 3.41684 69.745 8.54267 72.1437 12.5359C73.0803 14.0952 74.6985 15.1394 76.7023 15.4774C80.6126 16.1371 84.2833 13.0775 84.2833 9.15882C84.2833 6.01308 81.9003 3.30865 78.7238 2.84954C78.145 2.766 77.6028 2.70634 77.5191 2.7173C77.4354 2.72811 77.1615 2.76432 76.9104 2.7978ZM91.5951 2.85974C89.6033 3.1898 87.6986 4.62754 86.8335 6.45393C86.3715 7.42921 86.3451 7.57926 86.3465 9.23491C86.3477 10.8562 86.3802 11.0499 86.7862 11.8671C87.4475 13.198 88.4004 14.1653 89.6668 14.7911C92.3944 16.1389 95.3061 15.7069 97.3947 13.6446C98.2167 12.8329 98.5897 12.2843 98.8144 11.5556C98.9185 11.2182 98.9 11.2132 97.5657 11.2132H96.2114L95.7323 11.8092C95.4687 12.1373 94.8821 12.5868 94.4277 12.8092C91.7997 14.0949 88.842 12.1801 88.8627 9.20645C88.8708 8.04917 89.1083 7.33 89.7505 6.51921C91.21 4.67639 94.2573 4.67304 95.7356 6.51252L96.2114 7.10448H97.5553C98.5798 7.10448 98.8995 7.05578 98.8995 6.8998C98.8995 6.55787 97.7722 4.92961 97.1708 4.40308C95.7198 3.13258 93.5585 2.53439 91.5951 2.85974ZM2.11689 3.07217C2.11689 3.11432 3.04622 4.66771 4.18189 6.52439C5.31772 8.38106 6.34489 10.0895 6.4645 10.3208C6.62398 10.629 6.68211 11.3337 6.68211 12.9556V15.1697H7.8995H9.11689V12.8792V10.5886L11.2221 7.13461C12.3798 5.23487 13.4094 3.52656 13.51 3.33817L13.6928 2.99578H12.2785H10.864L9.41972 5.57574C8.15074 7.84267 7.9517 8.12419 7.77792 7.89639C7.66926 7.7538 6.99239 6.59271 6.27368 5.31643L4.96711 2.99578H3.542C2.75815 2.99578 2.11689 3.03017 2.11689 3.07217ZM14.5952 3.10443C14.5952 3.16424 15.5701 5.93989 16.7618 9.27265L18.9286 15.3324L20.274 15.289L21.6193 15.2458L23.8137 9.17115C25.0207 5.83017 26.0082 3.07384 26.0082 3.04615C26.0082 3.01845 25.4091 2.99578 24.6767 2.99593L23.3452 2.99608L22.7826 4.63348C22.4732 5.53404 21.7965 7.52448 21.2788 9.05671C20.7611 10.589 20.2874 11.7866 20.2262 11.7181C20.1649 11.6496 19.4737 9.65917 18.6903 7.29469L17.266 2.99578H15.9306C15.1961 2.99578 14.5952 3.04463 14.5952 3.10443ZM28.443 9.15882V15.3264L32.8941 15.2861L37.3452 15.2458L37.3899 14.1425L37.4346 13.0393H34.1562H30.8778V11.7458V10.4523H33.2365H35.5952V9.38708V8.32187H33.3288C31.4026 8.32187 31.0487 8.2858 30.9701 8.08113C30.9193 7.94874 30.8778 7.26395 30.8778 6.55939V5.27839H34.1562H37.4346L37.3899 4.17513L37.3452 3.07187L32.8941 3.03154L28.443 2.99121V9.15882ZM58.8271 3.09728C58.7712 3.15298 58.7256 5.92634 58.7256 9.26032V15.3219H60.0191H61.3125V12.8871V10.4523H62.7649H64.2171L65.3899 12.849L66.5625 15.2458L67.9701 15.2896C68.7443 15.3136 69.3778 15.3031 69.3778 15.2665C69.3778 15.2296 68.8024 14.0874 68.0992 12.7281L66.8206 10.2566L67.5127 9.77969C70.0892 8.00428 69.4204 4.00211 66.4075 3.16561C65.7539 2.98421 59.001 2.92319 58.8271 3.09728ZM101.486 9.15882V15.3219H102.704H103.921V12.8871V10.4523H106.432H108.943V12.8871V15.3219H110.16H111.378V9.15882V2.99578H110.16H108.943V5.58274V8.16969H106.432H103.921V5.58274V2.99578H102.704H101.486V9.15882ZM115.327 3.10763C115.322 3.17169 115.319 5.92893 115.319 9.23491L115.319 15.2458H119.778H124.236L124.234 14.1806L124.231 13.1153L121 13.0743L117.769 13.0332V11.7427V10.4523H120.039H122.309L122.36 9.38678L122.41 8.32111L120.09 8.32156L117.769 8.32187V6.80317V5.28447L121.003 5.24339L124.236 5.2023V4.13708V3.07187L119.785 3.03154C117.337 3.00932 115.331 3.04356 115.327 3.10763ZM127.508 9.14726V15.3219H128.802H130.095V12.8871V10.4523L131.503 10.4526L132.91 10.4528L134.128 12.8493L135.345 15.2458L136.766 15.2898L138.187 15.3336L136.873 12.7789C135.7 10.4961 135.587 10.2078 135.821 10.0719C136.458 9.70041 137.318 8.80426 137.572 8.24578C137.918 7.48613 137.938 6.12295 137.614 5.335C137.31 4.59497 136.591 3.82756 135.802 3.40087C135.232 3.09287 134.948 3.06867 131.351 3.02226L127.508 2.97265V9.14726ZM76.272 5.40271C75.488 5.72121 74.8058 6.3535 74.2718 7.25665C73.9232 7.84617 73.8672 8.11095 73.8695 9.15882C73.8725 10.5616 74.1489 11.2298 75.1094 12.1568C75.883 12.9034 76.6237 13.1914 77.7705 13.1914C78.9452 13.1914 79.7766 12.8156 80.6161 11.9048C82.1225 10.2706 82.0397 7.87189 80.4216 6.26371C79.2828 5.132 77.7307 4.80984 76.272 5.40271ZM61.3125 6.87621V8.47404H63.2196C65.5145 8.47404 66.0806 8.29752 66.4245 7.47456C66.7249 6.75539 66.5854 6.14958 66.0071 5.66293C65.5661 5.29193 65.4754 5.27839 63.4313 5.27839H61.3125V6.87621ZM130.095 6.87621V8.47404H131.926C133.915 8.47404 134.595 8.30285 135.021 7.69537C135.429 7.11239 135.342 6.24134 134.824 5.72319L134.379 5.27839H132.237H130.095V6.87621ZM64.4309 20.1934C64.2623 20.4663 61.1604 27.556 61.1604 27.6685C61.1604 27.7248 61.5122 27.7945 61.9421 27.8234L62.7238 27.8762L63.1033 27.0012L63.4827 26.1262H65.1759H66.869L67.177 26.9251L67.4849 27.724L68.3553 27.7697C68.8339 27.7948 69.2256 27.7893 69.2256 27.7574C69.2256 27.7256 68.4825 25.9931 67.5745 23.9074L65.9234 20.1153L65.2297 20.0695C64.8343 20.0434 64.4907 20.0968 64.4309 20.1934ZM82.483 20.2056C80.7225 20.7429 79.667 22.1937 79.6705 24.0719C79.6728 25.2871 79.9144 25.9629 80.6432 26.793C81.4553 27.718 82.1903 28.0231 83.606 28.0231C84.9369 28.0231 85.6999 27.7383 86.4113 26.9763L86.7819 26.5792L86.2682 26.0492C85.7616 25.5265 85.75 25.5231 85.4411 25.8048C84.166 26.9679 82.4592 26.7666 81.6332 25.3556C81.261 24.7198 81.2434 23.4983 81.5969 22.8285C82.245 21.6 83.8163 21.258 85.053 22.0764L85.7005 22.5049L86.2394 21.9661C86.8845 21.321 86.811 21.1653 85.5771 20.5617C84.6645 20.1152 83.2954 19.9577 82.483 20.2056ZM45.3343 24.0685V27.9523H46.1712H47.0082V26.4306V24.9088H48.8343H50.6604V24.148V23.3871H48.8343H47.0082V22.5544V21.7217L49.1006 21.6794L51.193 21.6371V20.9523V20.2675L48.2636 20.2261L45.3343 20.1849V24.0685ZM53.2473 24.055V27.9523L54.0462 27.9525L54.8452 27.9526V26.697V25.4414L55.5299 25.4L56.2147 25.3585L57.1104 26.6555L58.006 27.9523H58.9835C59.6721 27.9523 59.9294 27.9015 59.8546 27.78C59.796 27.6854 59.3539 27.0575 58.872 26.3849L57.9959 25.1617L58.461 24.8451C59.5636 24.0939 59.9075 22.8975 59.37 21.6824C59.1273 21.1338 58.9193 20.9254 58.3257 20.6358C57.6751 20.3185 57.3184 20.2671 55.4158 20.2159L53.2473 20.1576V24.055ZM70.8995 24.0719V27.9523H71.6604H72.4212V25.5175C72.4212 24.1784 72.4725 23.0865 72.5354 23.091C72.5982 23.0955 73.4725 24.1741 74.4782 25.4877L76.307 27.8762L77.0271 27.9226L77.7473 27.969V24.0802V20.1914H76.9142H76.0812L76.0392 22.5282L75.9973 24.8651L74.1858 22.5282L72.3745 20.1914H71.6369H70.8995V24.0719ZM88.5517 24.0685V27.9523H91.5191H94.4865V27.1914V26.4306H92.356H90.2256V25.5846V24.7387L92.052 24.7857L93.8784 24.8327L93.8781 24.0338L93.8778 23.2349H92.0517H90.2256V22.4783V21.7217L92.318 21.6794L94.4104 21.6371V20.9523V20.2675L91.481 20.2261L88.5517 20.1849V24.0685ZM54.882 21.8121C54.8401 21.8831 54.8147 22.3865 54.8255 22.9306L54.8452 23.9197L56.1192 23.9133C57.264 23.9077 57.4221 23.8713 57.6789 23.5542C58.0437 23.1036 58.0425 22.6037 57.6753 22.1504C57.4239 21.8399 57.2259 21.7856 56.172 21.7377C55.5044 21.7074 54.9238 21.7409 54.882 21.8121ZM64.7722 23.0827C64.0591 24.6745 64.0403 24.6045 65.1828 24.6045C65.7324 24.6045 66.1821 24.5792 66.1821 24.5482C66.1821 24.5173 65.9493 23.9865 65.6646 23.3688L65.1472 22.2458L64.7722 23.0827Z" fill="#143616"/>
</svg>
