<svg width="22" height="16" viewBox="0 0 22 16" fill="none" xmlns="http://www.w3.org/2000/svg">
    <path d="M19.1121 0.463867H2.88805C2.18788 0.463867 1.51638 0.742009 1.02129 1.23711C0.526189 1.7322 0.248047 2.4037 0.248047 3.10387V12.8959C0.248047 13.596 0.526189 14.2675 1.02129 14.7626C1.51638 15.2577 2.18788 15.5359 2.88805 15.5359H19.1121C19.8122 15.5359 20.4837 15.2577 20.9788 14.7626C21.4739 14.2675 21.7521 13.596 21.7521 12.8959V3.10387C21.7521 2.4037 21.4739 1.7322 20.9788 1.23711C20.4837 0.742009 19.8122 0.463867 19.1121 0.463867ZM2.88805 1.90387H19.1121C19.4303 1.90387 19.7355 2.0303 19.9606 2.25534C20.1856 2.48038 20.312 2.78561 20.312 3.10387V3.53587H1.68805V3.10387C1.68805 2.78561 1.81448 2.48038 2.03952 2.25534C2.26456 2.0303 2.56979 1.90387 2.88805 1.90387ZM20.312 4.97587V6.79987H1.68805V4.97587H20.312ZM19.1121 14.0959H2.88805C2.56979 14.0959 2.26456 13.9694 2.03952 13.7444C1.81448 13.5194 1.68805 13.2141 1.68805 12.8959V8.23987H20.312V12.8959C20.312 13.2141 20.1856 13.5194 19.9606 13.7444C19.7355 13.9694 19.4303 14.0959 19.1121 14.0959Z" fill="#2D2D2D"/>
</svg>
