<svg width="24" height="24" viewBox="0 0 24 24" fill="none" xmlns="http://www.w3.org/2000/svg">
    <path d="M8.51617 19.2582C8.9972 19.2582 9.38715 18.8682 9.38715 18.3872C9.38715 17.9062 8.9972 17.5162 8.51617 17.5162H6.19357C5.80858 17.5162 5.43935 17.3633 5.16712 17.0911C4.89489 16.8188 4.74195 16.4496 4.74195 16.0646V6.19357C4.74195 5.80858 4.89489 5.43935 5.16712 5.16712C5.43935 4.89489 5.80858 4.74195 6.19357 4.74195H9.9678V7.35487C9.9678 7.8359 10.3577 8.22585 10.8388 8.22585C11.3198 8.22585 11.7097 7.8359 11.7097 7.35487V4.74195H15.484C15.869 4.74195 16.2382 4.89489 16.5104 5.16712C16.7827 5.43935 16.9356 5.80858 16.9356 6.19357V10.2581C16.9356 10.7391 17.3255 11.1291 17.8066 11.1291C18.2876 11.1291 18.6775 10.7391 18.6775 10.2581V6.19357C18.6775 5.34659 18.3411 4.53429 17.7422 3.93538C17.1433 3.33646 16.331 3 15.484 3H6.19357C5.34659 3 4.53429 3.33646 3.93538 3.93538C3.33646 4.53429 3 5.34659 3 6.19357V16.0646C3 16.9116 3.33646 17.7239 3.93538 18.3228C4.53429 18.9217 5.34659 19.2582 6.19357 19.2582H8.51617Z" fill="#2D2D2D"/>
    <path d="M17.2257 13.4517H12.3599L13.7766 12.0349C14.1166 11.695 14.1166 11.1439 13.7766 10.804C13.4367 10.464 12.8856 10.464 12.5457 10.804L9.64242 13.7072C9.47931 13.8705 9.3877 14.0919 9.3877 14.3227C9.3877 14.5535 9.47931 14.7749 9.64242 14.9382L12.5457 17.8414C12.8856 18.1814 13.4367 18.1814 13.7766 17.8414C14.1166 17.5015 14.1166 16.9504 13.7766 16.6105L12.3599 15.1937H17.2257C17.7647 15.1937 18.2816 15.4078 18.6627 15.7889C19.0439 16.17 19.258 16.687 19.258 17.226C19.258 17.7649 19.0439 18.2819 18.6627 18.663C18.2816 19.0441 17.7647 19.2582 17.2257 19.2582H16.0644C15.5834 19.2582 15.1934 19.6482 15.1934 20.1292C15.1934 20.6102 15.5834 21.0002 16.0644 21.0002H17.2257C18.2267 21.0002 19.1867 20.6025 19.8945 19.8947C20.6023 19.1869 20.9999 18.2269 20.9999 17.226C20.9999 16.225 20.6023 15.265 19.8945 14.5572C19.1867 13.8494 18.2267 13.4517 17.2257 13.4517Z" fill="#2D2D2D"/>
</svg>
