<svg width="22" height="19" viewBox="0 0 22 19" fill="none" xmlns="http://www.w3.org/2000/svg">
<path fill-rule="evenodd" clip-rule="evenodd" d="M1.75443 3.34251C1.07323 4.22657 0.573744 5.23672 0.284765 6.31472C-0.00421417 7.39272 -0.0769733 8.51725 0.0706814 9.6235C0.218336 10.7298 0.583485 11.7958 1.14508 12.7603C1.70654 13.7245 2.45324 14.5681 3.34217 15.2425C5.13848 16.6094 7.40225 17.2108 9.64011 16.9157C11.6819 16.6465 13.551 15.6508 14.9115 14.1221L20.7963 18.6009C21.2309 18.9317 21.8514 18.8475 22.1821 18.4129C22.5129 17.9783 22.4287 17.3579 21.9941 17.0271L16.0449 12.4993C16.3512 11.9281 16.5915 11.3221 16.7601 10.6931C17.0491 9.6151 17.1218 8.49057 16.9742 7.38431C16.8265 6.27806 16.4614 5.21198 15.8998 4.24751C15.3383 3.28319 14.5915 2.43952 13.7025 1.76512C11.9062 0.398398 9.64252 -0.202963 7.40476 0.0921226C5.16664 0.387256 3.13593 1.55519 1.75534 3.34132L1.75443 3.34251ZM2.1952 6.82685C2.41653 6.00119 2.79905 5.22749 3.32071 4.55032C4.38205 3.17754 5.94299 2.27989 7.66334 2.05303C9.38394 1.82614 11.1245 2.28864 12.5055 3.33969L12.5068 3.34067C13.188 3.8574 13.7603 4.50385 14.1906 5.24276C14.6208 5.98168 14.9006 6.79845 15.0137 7.64599C15.1268 8.49353 15.0711 9.35507 14.8497 10.181C14.6283 11.0066 14.2458 11.7803 13.7241 12.4575C12.6628 13.8303 11.1019 14.7279 9.38153 14.9548C7.66093 15.1817 5.9204 14.7192 4.53938 13.6681L4.53809 13.6671C3.85683 13.1504 3.28458 12.504 2.85432 11.7651C2.42406 11.0261 2.14431 10.2094 2.03118 9.36183C1.91806 8.51429 1.9738 7.65274 2.1952 6.82685ZM13.7025 1.76512L13.1044 2.55274L13.7033 1.76578L13.7025 1.76512Z" fill="#014E2E"/>
</svg>
