<svg width="36" height="24" viewBox="0 0 36 24" fill="none" xmlns="http://www.w3.org/2000/svg">
<path fill-rule="evenodd" clip-rule="evenodd" d="M22 22H1C1 22 1 11 1 7C1 3 4 1 6 1C8 1 15 1 18 1C21 1 22 4 22 6C22 8 22 22 22 22Z" stroke="#143616" stroke-width="1.1"/>
<mask id="mask0_11451_1549" style="mask-type:alpha" maskUnits="userSpaceOnUse" x="13" y="9" width="15" height="14">
<path d="M27.5 9.69922H13.5V22.6992H27.5V9.69922Z" fill="#143616"/>
</mask>
<g mask="url(#mask0_11451_1549)">
<path d="M24 10.1992H11C10.4477 10.1992 10 10.6469 10 11.1992V21.1992C10 21.7515 10.4477 22.1992 11 22.1992H24C24.5523 22.1992 25 21.7515 25 21.1992V11.1992C25 10.6469 24.5523 10.1992 24 10.1992Z" fill="#143616" stroke="#143616"/>
<path d="M25 11.1992L17.5186 17.1992L10 11.1992" stroke="#939956" stroke-linecap="round" stroke-linejoin="round"/>
</g>
<path d="M18 1C17 1 13 1 13 6C13 11 13 22 13 22" stroke="#143616" stroke-width="1.1" stroke-linecap="round" stroke-linejoin="round"/>
<path d="M28.3956 13.914H31.6036C31.7393 13.9333 31.8722 13.8588 31.9452 13.7228C32.0183 13.5867 32.0183 13.4133 31.9452 13.2772C31.8722 13.1412 31.7393 13.0667 31.6036 13.086H28.3956C28.1917 13.0797 28.0187 13.2608 28 13.5C28.0338 13.7298 28.1979 13.9016 28.3956 13.914Z" fill="#143616" stroke="#143616" stroke-width="0.466667"/>
<path d="M32.6211 16.914C32.7508 16.9333 32.8779 16.8588 32.9477 16.7228C33.0174 16.5867 33.0174 16.4133 32.9477 16.2772C32.8779 16.1412 32.7508 16.0667 32.6211 16.086H28.3782C28.1833 16.0797 28.0179 16.2608 28 16.5C28.0323 16.7298 28.1892 16.9016 28.3782 16.914H32.6211Z" fill="#143616" stroke="#143616" stroke-width="0.466667"/>
<path d="M34.551 19.086H28.4047C28.2662 19.0667 28.1304 19.1412 28.0559 19.2772C27.9814 19.4133 27.9814 19.5867 28.0559 19.7228C28.1304 19.8588 28.2662 19.9333 28.4047 19.914H34.5961C34.8042 19.9203 34.9809 19.7392 35 19.5C34.9588 19.2535 34.7685 19.078 34.551 19.086Z" fill="#143616" stroke="#143616" stroke-width="0.466667"/>
</svg>
