<svg width="25" height="24" viewBox="0 0 25 24" fill="none" xmlns="http://www.w3.org/2000/svg">
<path d="M21.5 5.97656C18.17 5.64656 14.82 5.47656 11.48 5.47656C9.5 5.47656 7.52 5.57656 5.54 5.77656L3.5 5.97656" stroke="#E22E36" stroke-width="1.5" stroke-linecap="round" stroke-linejoin="round"/>
<path d="M9 4.97L9.22 3.66C9.38 2.71 9.5 2 11.19 2H13.81C15.5 2 15.63 2.75 15.78 3.67L16 4.97" stroke="#E22E36" stroke-width="1.5" stroke-linecap="round" stroke-linejoin="round"/>
<path d="M19.3504 9.14062L18.7004 19.2106C18.5904 20.7806 18.5004 22.0006 15.7104 22.0006H9.29039C6.50039 22.0006 6.41039 20.7806 6.30039 19.2106L5.65039 9.14062" stroke="#E22E36" stroke-width="1.5" stroke-linecap="round" stroke-linejoin="round"/>
<path d="M10.8301 16.5H14.1601" stroke="#E22E36" stroke-width="2.25" stroke-linecap="round" stroke-linejoin="round"/>
<path d="M10 12.5H15" stroke="#E22E36" stroke-width="2.25" stroke-linecap="round" stroke-linejoin="round"/>
</svg>
