<svg width="45" height="15" viewBox="0 0 45 15" fill="none" xmlns="http://www.w3.org/2000/svg">
<path d="M19.6702 14.579H16.0621L18.3186 0.717804H21.9268L19.6702 14.579Z" fill="#005CA8"/>
<path d="M13.0277 0.717804L9.58733 10.2519L9.18138 8.19948L7.96807 1.9674C7.96807 1.9674 7.82066 0.720072 6.25584 0.720072H0.565768L0.5 0.953662C0.5 0.953662 2.23945 1.31425 4.27372 2.5389L7.40791 14.579H11.168L16.9103 0.717804H13.0277Z" fill="#005CA8"/>
<path d="M41.41 14.579H44.7233L41.8341 0.717804H38.9335C37.5932 0.717804 37.2666 1.74968 37.2666 1.74968L31.8849 14.5767H35.6451L36.398 12.5175H40.9859L41.41 14.579ZM37.4389 9.67586L39.3349 4.48926L40.4008 9.67586H37.4389Z" fill="#005CA8"/>
<path d="M32.1684 4.05157L32.6832 1.07386C32.6832 1.07386 31.0935 0.470612 29.4379 0.470612C27.6463 0.470612 23.3941 1.25302 23.3941 5.0585C23.3941 8.63945 28.3856 8.68481 28.3856 10.5649C28.3856 12.4449 23.9089 12.1093 22.4325 10.9232L21.895 14.0347C21.895 14.0347 23.5052 14.8171 25.9681 14.8171C28.431 14.8171 32.1458 13.5426 32.1458 10.0727C32.1458 6.46911 27.1088 6.13347 27.1088 4.56637C27.1088 2.99928 30.624 3.20112 32.1684 4.05157Z" fill="#005CA8"/>
<path d="M9.17911 8.19972L7.9658 1.96763C7.9658 1.96763 7.81839 0.720306 6.25357 0.720306H0.565768L0.5 0.953896C0.5 0.953896 3.23278 1.52086 5.85669 3.64358C8.36268 5.67105 9.17911 8.19972 9.17911 8.19972Z" fill="#F6A723"/>
</svg>
