<svg width="45" height="44" viewBox="0 0 45 44" fill="none" xmlns="http://www.w3.org/2000/svg">
<circle cx="22.5" cy="22" r="21.5" fill="white" stroke="#DEDEDE"/>
<g clip-path="url(#clip0_15_2220)">
<path d="M20.4614 24.9442V18.5579L26.5644 21.7682L20.4614 24.9528V24.9442ZM33.8605 17.4506C33.8605 17.4506 33.6373 15.8798 32.9592 15.1931C32.1009 14.2833 31.1395 14.2833 30.6931 14.2318C27.5343 14 22.7961 14 22.7961 14H22.7876C22.7876 14 18.0494 14 14.882 14.2318C14.4442 14.2833 13.4742 14.2918 12.6159 15.1931C11.9378 15.8798 11.7232 17.4506 11.7232 17.4506C11.7232 17.4506 11.5 19.2876 11.5 21.133V22.8584C11.5 24.6953 11.7232 26.5408 11.7232 26.5408C11.7232 26.5408 11.9464 28.1116 12.6159 28.7983C13.4742 29.7082 14.6073 29.6738 15.1052 29.7682C16.9077 29.9399 22.7876 30 22.7876 30C22.7876 30 27.5343 30 30.6931 29.7597C31.1309 29.7082 32.1009 29.6996 32.9592 28.7983C33.6373 28.1116 33.8605 26.5408 33.8605 26.5408C33.8605 26.5408 34.0837 24.7039 34.0837 22.8584V21.133C34.0837 19.2961 33.8605 17.4506 33.8605 17.4506Z" fill="#014E2E"/>
</g>
<defs>
<clipPath id="clip0_15_2220">
<rect width="22.5837" height="16" fill="white" transform="translate(11.5 14)"/>
</clipPath>
</defs>
</svg>
