<svg version="1.1" id="Layer_1" xmlns="http://www.w3.org/2000/svg" xmlns:xlink="http://www.w3.org/1999/xlink" x="0px" y="0px" viewBox="0 0 56 56" style="enable-background:new 0 0 56 56;" xml:space="preserve">
 <style type="text/css">
  .st0{fill:#778C30;}
 </style>
 <g>
  <path class="st0" d="M26.8,32.2c6.1-3,10.1-8.4,9.6-15.4c-6.5,2.4-10.1,8.6-10.1,15.1l0,16c0.5,0,1.1,0.1,1.7,0.1
		c5.9,0,11.1-2.5,14.8-6.5C35.9,41.2,30.3,38,26.8,32.2 M28,7.9c-8.2,0-15.3,5-18.4,12c5.6,0.7,10.3,3.8,13.3,8.2
		c1.3-8.9,8.6-14.2,16.8-16.4c-0.1-0.1-0.1-0.1-0.2-0.2C36.2,9.3,32.3,7.9,28,7.9 M8.5,23.6L8.5,23.6C8.1,25,7.9,26.5,7.9,28
		c0,9.2,6.1,16.9,14.5,19.3V39C22.5,30.7,16.3,24.3,8.5,23.6 M28,0C12.5,0,0,12.5,0,28c0,15.4,12.5,28,28,28c15.4,0,28-12.5,28-28
		C56,12.5,43.4,0,28,0 M28,51.8C14.8,51.8,4.2,41.1,4.2,28C4.2,14.8,14.8,4.2,28,4.2c13.1,0,23.8,10.7,23.8,23.8
		C51.8,41.1,41.1,51.8,28,51.8 M39.7,11.8c1.3,8.2-0.6,16.8-7.5,21.5c2.6,2.9,7.8,5,13.3,4.5c1.6-2.9,2.5-6.2,2.5-9.7
		C48,21.3,44.7,15.4,39.7,11.8 M39.7,11.7C39.7,11.7,39.7,11.7,39.7,11.7C39.7,11.7,39.7,11.7,39.7,11.7L39.7,11.7z">
  </path>
 </g>
</svg>